
<svg width="65px" height="60px" viewBox="0 0 65 60" version="1.1" xmlns="http://www.w3.org/2000/svg" xmlns:xlink="http://www.w3.org/1999/xlink">
    <!-- Generator: Sketch 50 (54983) - http://www.bohemiancoding.com/sketch -->
    <desc>Created with Sketch.</desc>
    <defs></defs>
    <g id="Login" stroke="none" stroke-width="1" fill="none" fill-rule="evenodd" opacity="0.5">
        <g id="expired-link" transform="translate(-608.000000, -318.000000)" fill="#9FA1A6" fill-rule="nonzero">
            <g id="Group-2" transform="translate(557.000000, 318.000000)">
                <g id="warning-(1)" transform="translate(51.000000, 0.000000)">
                    <path d="M32.7440259,20 C31.5977421,20 30.8333333,20.7641892 30.8333333,21.9106926 L30.8333333,35.6669764 C30.8333333,36.8132601 31.5975225,37.5776689 32.7440259,37.5776689 C33.8903097,37.5776689 34.6547185,36.8134797 34.6547185,35.6669764 L34.6547185,21.9106926 C34.6547185,20.7641892 33.8903097,20 32.7440259,20 Z" id="Shape"></path>
                    <path d="M33.8903097,43.9064752 C33.1261205,43.142286 31.9796171,43.142286 31.2154279,43.9064752 C30.8333333,44.2885698 30.8333333,45.052759 30.8333333,45.4348536 C30.8333333,46.1990428 30.8333333,46.5811374 31.2154279,46.963232 C31.5975225,47.3453266 32.3617117,47.3453266 32.7438063,47.3453266 C33.1259009,47.3453266 33.8900901,47.3453266 33.5079955,46.963232 C33.8900901,46.5811374 34.2721847,45.8169482 34.2721847,45.4348536 C34.2726239,44.6706644 34.2726239,44.2885698 33.8903097,43.9064752 Z" id="Shape"></path>
                    <path d="M63.3367356,44.3258277 L40.7916174,4.96744932 C39.263239,1.91047297 35.8241681,0 32.3848775,0 C28.9458066,0 25.8888302,1.91069257 23.9781377,4.96744932 L1.43301943,44.3258277 C-0.477673142,47.3828041 -0.477673142,51.2039696 1.43301943,54.2609459 C2.9613978,57.3179223 6.40046875,59.2283953 9.83975929,59.2283953 L54.9299958,59.2283953 C58.7511613,59.2283953 61.8081377,57.3177027 63.3367356,54.2609459 C65.2474282,51.2039696 65.2474282,47.3828041 63.3367356,44.3258277 Z M60.2797593,52.7325676 C59.5155701,54.6432601 57.6048775,55.7895439 55.31231,55.7895439 L9.83975929,55.7895439 C7.92906672,55.7895439 6.01859375,54.6432601 4.87230997,52.7325676 C3.72602618,50.821875 3.72602618,48.5293074 4.87230997,46.6186149 L27.4174282,7.26001689 C28.1816174,5.34932432 30.09231,4.20304054 32.3848775,4.20304054 C34.6776647,4.20304054 36.5881377,5.34932432 37.734641,7.26001689 L60.2797593,46.6183953 C61.4262627,48.5290878 61.4262627,50.821875 60.2797593,52.7325676 Z" id="Shape"></path>
                </g>
            </g>
        </g>
    </g>
</svg>
