
<svg width="12px" height="24px" viewBox="0 0 12 24" version="1.1" xmlns="http://www.w3.org/2000/svg" xmlns:xlink="http://www.w3.org/1999/xlink">
    <!-- Generator: Sketch 50 (54983) - http://www.bohemiancoding.com/sketch -->
    <desc>Created with Sketch.</desc>
    <defs></defs>
    <g id="Login" stroke="none" stroke-width="1" fill="none" fill-rule="evenodd">
        <g id="List-of-businesses-under-the-logged-in-email-(Seller-+-Payer-+-any-other-types)-" transform="translate(-818.000000, -261.000000)" fill="#9D9FA4">
            <path d="M829.845466,272.521559 L823.636483,261.199927 C823.490292,260.933358 823.255834,260.933358 823.109643,261.199927 C822.963452,261.466496 822.963452,261.894012 823.109643,262.16058 L829.053827,272.999371 L823.109643,283.838162 C822.963452,284.104731 822.963452,284.532247 823.109643,284.798816 C823.18136,284.929586 823.277901,285 823.371684,285 C823.465467,285 823.562008,284.934615 823.633725,284.798816 L829.842708,273.477183 C829.988899,273.215644 829.845466,272.521559 829.845466,272.521559 Z" id="next-Arrow" transform="translate(826.454202, 273.000000) scale(-1, 1) translate(-826.454202, -273.000000) "></path>
            <path d="M824.845466,272.521559 L818.636483,261.199927 C818.490292,260.933358 818.255834,260.933358 818.109643,261.199927 C817.963452,261.466496 817.963452,261.894012 818.109643,262.16058 L824.053827,272.999371 L818.109643,283.838162 C817.963452,284.104731 817.963452,284.532247 818.109643,284.798816 C818.18136,284.929586 818.277901,285 818.371684,285 C818.465467,285 818.562008,284.934615 818.633725,284.798816 L824.842708,273.477183 C824.988899,273.215644 824.988899,272.783098 824.845466,272.521559 Z" id="next-Arrow" transform="translate(821.476349, 273.000000) scale(-1, 1) translate(-821.476349, -273.000000) "></path>
        </g>
    </g>
</svg>
