<?xml version="1.0" encoding="utf-8"?>
<!-- Generator: Adobe Illustrator 18.0.0, SVG Export Plug-In . SVG Version: 6.00 Build 0)  -->
<svg version="1.1" id="Layer_1" xmlns="http://www.w3.org/2000/svg" xmlns:xlink="http://www.w3.org/1999/xlink" x="0px" y="0px"
	 viewBox="0 0 200 124.1" enable-background="new 0 0 200 124.1" xml:space="preserve">
<path fill="#FFFFFF" d="M191.3,17.5H8.7C3.9,17.5,0,13.5,0,8.7v0C0,3.9,3.9,0,8.7,0h182.5c4.8,0,8.7,3.9,8.7,8.7v0
	C200,13.5,196.1,17.5,191.3,17.5z"/>
<path fill="#FFFFFF" d="M191.3,70.8H8.7c-4.8,0-8.7-3.9-8.7-8.7v0c0-4.8,3.9-8.7,8.7-8.7h182.5c4.8,0,8.7,3.9,8.7,8.7v0
	C200,66.9,196.1,70.8,191.3,70.8z"/>
<path fill="#FFFFFF" d="M191.3,124.1H8.7c-4.8,0-8.7-3.9-8.7-8.7v0c0-4.8,3.9-8.7,8.7-8.7h182.5c4.8,0,8.7,3.9,8.7,8.7v0
	C200,120.2,196.1,124.1,191.3,124.1z"/>
</svg>
